<svg xmlns="http://www.w3.org/2000/svg" height="73.551" width="71.048"><g transform="translate(0 -.01) scale(.16078)"><path d="M267.89 229.55c-8.82 8.82-16.5 76.52-16.5 88.37 0 7.85 1.86 2.39 2 1.19 4.75-42.71 13.83-75.41 15.89-81.7 3.06-9.36 15.92-11.05 21.6-12.12 5.68-1.07 12.09-1.61 20.14-8 7.05-5.59 5.39-13.18 2.39-16.86-2.42-3-4.34-4.17-1.77-7.81 2.57-3.64 4-6.26 4.17-10.55.17-4.29-3.82-5.95-5.41-6.12-1.59-.17-4.79 1.59-1.16-2.05 3.63-3.64 3.2-7.45 2.75-8.78-.45-1.33-5.67-5-7.72-6.92-2.44-2.34-6.12-4.88-2.39-10 5.32-7.35 5.77-11.27 5.68-14.29-.14-4.53-13-7.54-20.85-11.71-7.64-4.08-19.79-8.07-21-21.73-1.21-13.66-2.22-19.43-13.31-32.74-11.09-13.31-16.76-16.42-19.16-17.39-2.4-.97-.35-2.75 1.24-4.35 1.59-1.6 3.2-3.37 2.4-5.5-.8-2.13-8.7-1.42-11.36-1.24-5.5.37.8-3.64 0-10.29-.5-4.19-4.7-8.79-14.1-16.06-9.4-7.27-25-12.07-37.44-12.64-37.52-1.74-55.36 8-72.13 17.83-16.77 9.83-19 20.63-20 27-1 6.37-4.88 13-4.88 13h7.89c14.46-34.78 46.4-43.65 72.49-46.49 21.57-2.35 51.45 3.19 59.08 14.1 8.45 12.08-9.4 16.86-20.23 21.12 27.24-5.32 31.5-2.22 31.12 0-.38 2.22-4.94-.53-14.7.71-9.76 1.24-14.29 8.07-20.05 18.36-5.76 10.29-16 8-20.59 7.9-2.75 0-4.14 4.87 0 5.24 13 1.15 18.46-2 24.4-12.34 5.94-10.34 11.8-13.39 19-15.08 7.2-1.69 14.1 3.46 17.74 6.21 3.64 2.75 16.77 14.37 21.21 22.8 7.71 14.65 4.25 25.55 7.63 30.43 7.31 10.59 32.38 19.52 35.93 20.85 3.55 1.33 4.61 6.83 2.3 11.8-2.31 4.97-6 6.12-6.12 10.47-.12 4.35 9.14 11.27 11.18 12.69 2.04 1.42 1.78 5.85-1.15 8.69-2.93 2.84-8.7 5.59-9.94 6.21-1.24.62-1.06 1.51 0 1 2.46-1.32 9.64-5.51 13.77-1.72 4.13 3.79.2 7.82-1.44 10.36-1.92 3-3.32 4.9-.58 7.91a9.81 9.81 0 012.84 7.88 8.91 8.91 0 01-2.35 5.49c-3.19 3.57-7 5.4-18.23 8.08-5.91 1.29-14.82 3.29-20.28 8.79z" fill="#164194"/><path d="M239.92 111.73c2.82 2.79-4.09 7.16-5.13 11.86l-1.3.59c-.9 1.47.53 3.47-.78 4.07-1.52.16-2.61 1.2-3.73 2.23 2.55.94 5.32 1.25 7.76-.39a2.17 2.17 0 012.1 1.15 1.54 1.54 0 00.68-.83c.43-.2.87-.4 1.07 0l.8 1.75c-.51 2.35-3.09 2.47-4.64 3.71a21.47 21.47 0 0010-4.61c2.23-2.06-2.4-5.24-1.65-8.22-.89.41-.6-1.3-1.49-.9.49-1.27.76-3 1.44-3.83a3.39 3.39 0 002-2.51c-.4-.87-2.35-.5-2.29-1.59 1.78-2.93 3.09-6.89.72-8.77-2.06-1.64-14 .45-26.77 16.33-.45.56-.36 1.68 1.77-.27 1.07-1 5.94-5.58 10.61-7.85 4.67-2.27 8.05-2.69 8.83-1.92z" fill="#164194"/><path d="M287.49 149.82c-.39-.22-1.2-2.33.69-4.42s2.77-2.6 3.53-2.27c.76.33-.73 2.47-1.56 3.6-.83 1.13-1.1 3.99-2.66 3.09z" fill="#444d9b"/><circle r="8.45" cy="103.51" cx="130.28" fill="#164194"/><path d="M158.58 97.46a28.36 28.36 0 00-1.77-5.51c1.61-1.55 3.83-4 3.87-5.66l-4.32-6c-1.61-.51-4.63.81-6.61 1.84a29.1 29.1 0 00-4.7-3.47c.4-2.2.79-5.47-.17-6.87l-7-2.36c-1.61.53-3.28 3.37-4.29 5.36-.86-.09-1.73-.16-2.62-.18v4h-4.79v3.52a21.82 21.82 0 114.79 43.24v7.11c.89 0 1.76-.09 2.62-.19 1 2 2.68 4.84 4.29 5.37l7-2.36c1-1.4.57-4.67.17-6.87a29.1 29.1 0 004.7-3.47c2 1 5 2.35 6.61 1.84l4.32-6c0-1.69-2.26-4.11-3.87-5.66a28.36 28.36 0 001.77-5.59c2.21-.32 5.43-1 6.44-2.35v-7.4c-1.01-1.35-4.23-2.03-6.44-2.34z" fill="#e30613"/><path d="M320.77 403.04l-13-13.13c-19.69 13.3-70.4 51.32-163 24.31-2.48-.73-5.06 1.73-1.86 4.25 3.2 2.52 90.47 37 177.86-15.43z" fill="#164194"/><path d="M360.87 347.14c6.56-6.56 52.27-54.28 74.88-152.24.53-2.31 5.85-2.66 5.32 1.07-.53 3.73-14.19 99.58-67.6 161.64z" fill="#e30613"/><path d="M171.27 245.92c-5.5-2.95-15.79-6.75-44.53 18.8h3.94v3.83c4.35-3.55 26.8-23.58 37.87-19.34 3 1.15 4.35 6.74 1.78 17.92-2.57 11.18-16 37.53-26.26 48h9.85c3.72-6.3 17.21-30.78 21.2-44 3.99-13.22 1.56-22.33-3.85-25.21z" fill="#164194"/><path fill="#2f52a0" d="M45.51 143.53h4.39v4.39h-4.39z"/><path fill="#4565ad" d="M38.59 235.35h4.86v4.86h-4.86z"/><path fill="#164194" d="M57.22 247.79h3.52v3.52h-3.52z"/><path fill="#2f52a0" d="M42.52 206.76h2.91v2.91h-2.91zM47.71 258.39h2.51v2.51h-2.51zM53.63 249.99h2.91v2.91h-2.91zM49.9 152.98h5.06v5.06H49.9zM49.9 253.66h4.09v4.09H49.9zM55.09 255.07h3.58v3.58h-3.58z"/><path fill="#164194" d="M57.22 191.57h3.33v3.33h-3.33z"/><path fill="#2f52a0" d="M44.49 236.69h4.13v4.13h-4.13z"/><path fill="#164194" d="M61.48 195.03h3.66v3.66h-3.66zM63.31 231.33h2.56v2.56h-2.56z"/><path fill="#e30613" d="M80.5 127.53h5.34v5.34H80.5z"/><path fill="#164194" d="M64.68 200.49h5.72v5.72h-5.72z"/><path fill="#2f52a0" d="M51.24 147.39h4.66v4.66h-4.66z"/><path fill="#164194" d="M60.55 170.15h5.32v5.32h-5.32z"/><path fill="#2f52a0" d="M55.89 155.69h5.32v5.32h-5.32z"/><path fill="#164194" d="M67.07 194.23h3.33v-3.32h-3.33v-3.33h-3.86v3.86h3.86zM65.87 175.83h5.36v5.36h-5.36z"/><path fill="#2f52a0" d="M51.24 258.78h3.19v3.19h-3.19z"/><path fill="#164194" d="M77.78 266.05h4.97v4.97h-4.97zM76.39 233.09h4.52v4.52h-4.52zM72.79 268.89h4.26v4.26h-4.26zM58.89 252.26h2.81v2.81h-2.81zM71.16 228.33h2.05v2.05h-2.05zM80.91 197.96h4.39v4.39h-4.39zM79.02 228.33h4.09v4.09h-4.09zM81.58 192.77h4.26v4.26h-4.26zM79.18 223.78h3.46v3.46h-3.46zM71.23 193.27h3.96v3.96h-3.96zM66.35 247.79h2.2v2.2h-2.2zM61.7 246.55h3.44v3.44H61.7zM62.69 274.51h4.38v4.38h-4.38zM59.45 232.78h2.58v2.58h-2.58zM73.99 225.51h3.79v3.79h-3.79zM75.89 230.38h1.9v1.9h-1.9zM72.79 238.42h3.59v3.59h-3.59zM67.07 230.38h2.4v2.4h-2.4zM69.47 242.81h3.74v3.74h-3.74zM60.55 204.08h2.66v2.66h-2.66z"/><path fill="#e30613" d="M99.88 100.15h4.94v4.94h-4.94zM100.28 92.96h4.86v4.86h-4.86zM99.88 86.79h5.24v5.24h-5.24zM100.06 113.86h5.05v5.05h-5.05zM93.42 73.93h5.59v5.59h-5.59zM100.06 126.86h5.05v5.05h-5.05z"/><path fill="#164194" d="M91.96 253.66h2.76v2.76h-2.76z"/><path fill="#e30613" d="M87.72 114.34h4.57v4.57h-4.57zM93.42 92.39h5.42v5.42h-5.42zM93.42 106.53h5.42v5.42h-5.42zM87.43 85.89h4.86v4.86h-4.86zM113.37 120.49h4.14v4.14h-4.14zM113.05 113.58h5.33v5.33h-5.33zM118.38 133.95h4.79v4.79h-4.79zM113.05 79.72h4.46v4.46h-4.46zM105.93 85.77h6.25v6.25h-6.25zM105.93 100.15h6.25v6.25h-6.25zM113.05 126.58h5.33v5.33h-5.33zM105.93 119.44h5.66v5.66h-5.66zM99.88 79.72h5.26v5.26h-5.26z"/><path fill="#2f52a0" d="M46.38 118.91h4.49v4.49h-4.49zM42.52 200.69h4.72v4.72h-4.72zM46.38 206.76h3.84v3.84h-3.84zM41.74 137.28h5.51v5.51h-5.51zM49.64 235.35h3.79v3.79h-3.79zM55.89 163.62h4.66v4.66h-4.66z"/><path fill="#4565ad" d="M40.06 129.96h4.92v4.92h-4.92z"/><path fill="#2f52a0" d="M51.24 206.21h4.39v4.39h-4.39zM54.43 233.09h4.52v4.52h-4.52zM54.96 184.78h5.59v5.59h-5.59zM45.51 99.61h4.79v4.79h-4.79z"/><path fill="#e30613" d="M87.43 121.07h4.86v4.86h-4.86z"/><path fill="#2f52a0" d="M44.85 107.33h4.79v4.79h-4.79z"/><path fill="#164194" d="M82.64 220.58h2v2h-2z"/><path fill="#e30613" d="M87.43 107.33h4.79v4.79h-4.79z"/><path fill="#164194" d="M86.77 197.23h2.93v2.93h-2.93z"/><path fill="#e30613" d="M87.43 92.96h4.86v4.86h-4.86z"/><path fill="#2f52a0" d="M46.38 125.1h4.86v4.86h-4.86zM56.54 206.76h2.91v2.91h-2.91z"/><path fill="#164194" d="M83.27 267.16h2.57v2.57h-2.57zM76.96 59.47h7.94v7.94h-7.94z"/><path fill="#2f52a0" d="M47.24 279.59h4.29v4.29h-4.29zM42.11 279.46h4.07v4.07h-4.07zM42.52 260.91h4.26v4.26h-4.26z"/><path fill="#4565ad" d="M38.59 264.95h3.14v3.14h-3.14zM39.52 261.97h2.21v2.21h-2.21zM65.14 296.33h2.74v2.74h-2.74zM36.66 280.27h4.19v4.19h-4.19zM61.7 296.58h2.49v2.49H61.7z"/><path fill="#164194" d="M57.76 276.93h3.94v3.94h-3.94z"/><path fill="#2f52a0" d="M52.43 278.26h4.11v4.11h-4.11z"/><path fill="#5c79bb" d="M16.78 283.88h2.98v2.98h-2.98zM15.97 222.58h2.79v2.79h-2.79zM13.31 288.85h2.66v2.66h-2.66z"/><path fill="#4565ad" d="M69.47 297.71h2.72v2.72h-2.72z"/><path fill="#5c79bb" d="M12.64 285.37h2.66v2.66h-2.66zM21.63 283.88h2.98v2.98h-2.98zM25.29 285.66h2.93v2.93h-2.93z"/><path fill="#4565ad" d="M28.21 282.1h2.36v2.36h-2.36zM31.67 281.4h4.26v4.26h-4.26z"/><path fill="#5c79bb" d="M17.28 288.57h2.94v2.94h-2.94z"/><path fill="#164194" d="M119.64 269.73h4.22v4.22h-4.22zM114.4 278.26h-3.15v2.07h-4.12v4.13h4.12v-3.06h3.15zM114.96 276.93h3.34v3.34h-3.34z"/><path fill="#2f52a0" d="M102.34 284.46h4.13v4.13h-4.13zM98.61 288.59h2.93v2.93h-2.93z"/><path fill="#164194" d="M115.91 273.15h2.94v2.94h-2.94z"/><path fill="#e30613" d="M124.41 132.87h5.87v5.87h-5.87zM93.42 127.53h4.89v4.89h-4.89z"/><path fill="#164194" d="M124.96 265.94h4.55v4.55h-4.55z"/><path fill="#748fc9" d="M8.6 286.7h3.38v3.38H8.6z"/><path fill="#164194" d="M88.23 257.75h4.22v4.22h-4.22z"/><path fill="#4565ad" d="M84.55 292.62h2.88v2.88h-2.88zM76.84 296.49h2.35v2.35h-2.35zM80.27 294.87h3.44v3.44h-3.44z"/><path fill="#e30613" d="M79.98 113.58h5.33v5.33h-5.33z"/><path fill="#2f52a0" d="M93.34 289.67h4.37v4.37h-4.37z"/><path fill="#164194" d="M83.64 261.97h3.79v3.79h-3.79zM67.88 272.62h4.31v4.31h-4.31z"/><path fill="#2f52a0" d="M88.76 291.86h3.65v3.65h-3.65z"/><path fill="#164194" d="M87.43 200.89h4.52v4.52h-4.52z"/><path fill="#4565ad" d="M72.79 295.74h3.09v3.09h-3.09zM39.52 112.12h4.42v4.42h-4.42zM38.59 117.18h4.52v4.52h-4.52zM39.52 104.4h4.42v4.42h-4.42z"/><path fill="#2f52a0" d="M41.52 92.96h4.86v4.86h-4.86z"/><path fill="#4565ad" d="M35.27 233.89h2.79v2.79h-2.79z"/><path fill="#2f52a0" d="M46.18 86.97h5.06v5.06h-5.06z"/><path fill="#4565ad" d="M31.67 198.76h3.59v3.59h-3.59zM34.33 264.18h3.73v3.73h-3.73zM35.93 198.13h4.92v4.92h-4.92zM38.59 123.4h5.06v5.06h-5.06z"/><path fill="#164194" d="M70.4 182.79h4.79v4.79H70.4zM76.39 187.45h4.52v4.52h-4.52zM76.39 197.36h2.79v2.79h-2.79z"/><path fill="#e30613" d="M80.91 100.81h4.92v4.92h-4.92z"/><path fill="#2f52a0" d="M47.24 131.29h5.32v5.32h-5.32zM53.63 82.98h5.82v5.82h-5.82z"/><path fill="#164194" d="M69.07 62.48h4.33v4.33h-4.33z"/><path fill="#2f52a0" d="M56.56 73.93h5.79v5.79h-5.79z"/><path fill="#164194" d="M64.54 69.01h4.92v4.92h-4.92z"/><path fill="#4565ad" d="M30.57 231.58h2.89v2.89h-2.89z"/><path fill="#748fc9" d="M10.51 222.98h4.26v4.26h-4.26z"/><path fill="#5c79bb" d="M11.31 198.13h2.56v2.56h-2.56zM19.76 225.51h2.33v2.33h-2.33zM15.97 197.96h2.63v2.63h-2.63z"/><path fill="#748fc9" d="M6.12 197.36H8.6v2.48H6.12zM0 219.52h4.26v4.26H0zM1.46 197.36h2.79v2.79H1.46zM4.26 287.12h2.92v2.92H4.26zM5.19 220.58h4.52v4.52H5.19z"/><path fill="#5c79bb" d="M20.23 198.76h2.79v2.79h-2.79z"/><path fill="#4565ad" d="M27.58 228.33h2.99v2.99h-2.99z"/><path fill="#5c79bb" d="M24.6 268.89h4.26v4.26H24.6zM23.42 278.47h3.73v3.73h-3.73zM23.02 274.51h3.16v3.16h-3.16zM23.02 228.33h3.16v3.16h-3.16zM27.15 198.13h3.43v3.43h-3.43z"/><path fill="#748fc9" d="M3.59 291.31h4.19v4.19H3.59z"/><path fill="#5c79bb" d="M23.42 198.13h2.76v2.76h-2.76z"/><path fill="#4565ad" d="M29.94 267.91h3.64v3.64h-3.64z"/><path fill="#e30613" d="M119.31 72.07h5.66v5.66h-5.66z"/></g><path d="M12.59 60.633v-7.819h3.15a8.808 8.808 0 011.627.113 3.33 3.33 0 011.34.56 3.216 3.216 0 011.082 1.334 4.55 4.55 0 01.358 1.857 4.71 4.71 0 01-.242 1.577 3.618 3.618 0 01-.624 1.138 3.13 3.13 0 01-.833.708 3.66 3.66 0 01-1.09.392 7.277 7.277 0 01-1.468.134zm1.211-.923h1.95a5.495 5.495 0 001.42-.143 2.132 2.132 0 00.819-.405 2.388 2.388 0 00.67-.989 4.16 4.16 0 00.241-1.505q0-1.225-.47-1.884a2.296 2.296 0 00-1.146-.881c-.321-.106-.845-.161-1.564-.161h-1.92zM21.8 60.633v-7.819h1.24l4.8 6.134v-6.134H29v7.813h-1.237l-4.8-6.139v6.139zM37.03 52.814h1.21v4.513c0 .787-.105 1.409-.312 1.872a2.421 2.421 0 01-1.125 1.125q-.814.434-2.136.434-1.286 0-2.101-.379a2.32 2.32 0 01-1.166-1.095q-.349-.717-.349-1.958v-4.512h1.214v4.502q0 1.018.222 1.5a1.529 1.529 0 00.76.743 2.987 2.987 0 001.32.262q1.334 0 1.901-.518.568-.517.568-1.987zM40.216 60.633v-7.819h1.82l2.164 5.531c.2.516.344.9.436 1.156.104-.283.267-.7.482-1.25l2.193-5.437h1.627v7.813h-1.165V54.1l-2.657 6.538h-1.091l-2.643-6.656v6.65zM16.843 61.79h.309a.896.896 0 01.643.2.842.842 0 010 1.238.87.87 0 01-.643.207h-.305zm.322 1.475a.687.687 0 00.518-.169.672.672 0 00-.008-.976.706.706 0 00-.51-.16h-.134v1.305zM18.51 63.435h-.183v-1.644h.184zM19.027 63.435h-.184v-1.644h.238c.312 0 .602.083.602.455a.43.43 0 01-.412.453l.524.736h-.231l-.483-.722h-.046zm0-.882h.054c.208 0 .417-.04.417-.295s-.198-.297-.418-.297h-.055zM20.027 61.79h.852v.171h-.672v.482h.643v.179h-.643v.643h.669v.17h-.852zM22.445 62.15a.704.704 0 00-.502-.218.682.682 0 000 1.362.715.715 0 00.497-.219v.227a.84.84 0 01-.482.16.85.85 0 110-1.7.791.791 0 01.482.16zM23.193 63.435h-.184v-1.474h-.39v-.17h.98v.17h-.4zM23.97 63.435h-.184v-1.644h.183zM25.934 62.622a.857.857 0 11-.857-.852.852.852 0 01.857.852zm-1.53 0a.674.674 0 10.673-.682.68.68 0 00-.674.682zM26.194 61.721l1.287 1.345V61.79h.181v1.718l-1.286-1.34v1.266h-.183zM28.675 61.79h.309a.897.897 0 01.643.2.842.842 0 010 1.238.87.87 0 01-.643.207h-.306zm.322 1.475a.688.688 0 00.519-.169.672.672 0 00-.008-.976.707.707 0 00-.511-.16h-.132v1.305zM30.336 62.77a.603.603 0 00.072.366.421.421 0 00.332.161.437.437 0 00.321-.146.57.57 0 00.08-.378v-.98h.184v1.031a.574.574 0 01-.145.455.603.603 0 01-.442.189.613.613 0 01-.425-.17.576.576 0 01-.16-.474v-1.03h.183zM32.331 61.721l1.286 1.345V61.79h.184v1.718l-1.286-1.34v1.266h-.184zM34.318 62.77a.614.614 0 00.073.366.423.423 0 00.331.161.437.437 0 00.322-.146.57.57 0 00.08-.378v-.98h.183v1.031a.579.579 0 01-.143.455.617.617 0 01-.868.02.576.576 0 01-.16-.475v-1.03h.182zM35.85 61.697l.596 1.381.6-1.38.334 1.737h-.188l-.211-1.112-.53 1.18-.528-1.18-.21 1.112h-.189zM37.589 61.79h.853v.171h-.67v.482h.651v.179h-.651v.643h.67v.17h-.853zm.726-.46l-.332.337-.11-.061.26-.357zM38.938 63.435h-.184v-1.644h.238c.312 0 .602.083.602.455a.43.43 0 01-.412.453l.524.736h-.225l-.497-.722h-.046zm0-.882h.056c.207 0 .416-.04.416-.295s-.197-.297-.418-.297h-.054zM40.124 63.435h-.183v-1.644h.183zM41.727 63.302a.844.844 0 11.364-.682.818.818 0 01-.238.58l.246.251h-.233zm0-.233a.633.633 0 00.185-.447.675.675 0 10-.674.68.643.643 0 00.365-.122l-.397-.399h.241zM42.518 62.77a.603.603 0 00.073.366.421.421 0 00.33.161.437.437 0 00.322-.146.57.57 0 00.08-.378v-.98h.184v1.031a.574.574 0 01-.145.455.603.603 0 01-.442.189.62.62 0 01-.426-.17.58.58 0 01-.16-.474v-1.03h.183zM43.841 61.79h.854v.171h-.67v.482h.643v.179h-.643v.643h.67v.17h-.854z" fill="#1d1d1b"/><path d="M37.076 73.532l-.243.016-.177-2.513.245-.017zM38.012 71.183l-.275.804-.166-.04.212-.821zM38.975 71.362a.175.175 0 01-.161.193.172.172 0 01-.193-.153.174.174 0 11.346-.04zm.178 1.97l-.243.028-.16-1.426.242-.029zM39.952 71.955a.482.482 0 01.373-.272c.393-.06.526.211.577.544l.127.842-.24.036-.123-.804c-.034-.23-.084-.433-.363-.39-.333.049-.307.36-.269.615l.102.674-.242.035-.215-1.418.243-.037zM41.738 71.658a.482.482 0 01.36-.288c.391-.077.536.186.602.516l.16.836-.239.048-.16-.794c-.046-.228-.104-.43-.383-.373-.33.064-.29.375-.241.627l.131.667-.24.049-.277-1.41.24-.047zM43.284 71.902a.754.754 0 11.913.553.75.75 0 01-.913-.553zm.236-.061a.511.511 0 10.368-.643.508.508 0 00-.368.643zM45.814 71.487l.135-1.048.264-.077-.238 1.667-1.113-1.267.267-.079zM48.33 71.153l-.231.08-.064-.188a.603.603 0 01-.39.388c-.397.14-.765-.111-.897-.483-.131-.371 0-.804.4-.945a.617.617 0 01.546.069l-.068-.193.23-.08zm-1.358-.302c.093.265.336.461.625.36.29-.102.368-.397.274-.67a.482.482 0 00-.627-.332.482.482 0 00-.272.642zM49.224 70.802l-.226.09-.446-1.125-.14.055-.082-.211.139-.055-.19-.482.228-.09.19.482.238-.093.084.209-.24.095zM49.42 68.579a.175.175 0 01-.321.136.175.175 0 01.322-.136zm.73 1.837l-.223.097-.566-1.32.225-.097zM50.433 69.523a.754.754 0 111.007.355.754.754 0 01-1.007-.355zm.22-.108a.51.51 0 10.92-.44.51.51 0 10-.92.44zM52.24 68.013a.482.482 0 01.256-.384c.35-.192.566.017.729.311l.408.748-.214.117-.383-.717c-.11-.202-.226-.376-.482-.24-.294.162-.16.445-.04.67l.322.598-.214.117-.69-1.259.214-.117zM56.371 66.963l-.203.137-.11-.161a.606.606 0 01-.279.474.709.709 0 01-.992-.243c-.228-.34-.207-.776.15-1.017a.624.624 0 01.545-.071l-.114-.17.202-.136zm-1.39.05c.16.233.441.362.696.193s.257-.483.094-.719a.482.482 0 00-.69-.16.482.482 0 00-.1.684zM56.759 65.895c.144.192.292.341.529.161s.133-.362-.013-.553l-.483-.643.195-.146.5.66c.23.304.275.603-.063.859-.337.256-.614.13-.844-.174l-.5-.66.195-.148zM59.003 63.451a.225.225 0 00-.243.021.174.174 0 00-.027.237c.088.098.244.024.416-.036a.437.437 0 01.523.087.471.471 0 01-.052.672.518.518 0 01-.62.066l.101-.212a.307.307 0 00.372-.024.22.22 0 00.027-.322c-.214-.24-.624.275-.926-.062a.412.412 0 01.05-.589.437.437 0 01.461-.056zM60.022 63.104a.465.465 0 00.672.011.482.482 0 00.103-.517l.232-.06a.725.725 0 01-.19.753.696.696 0 01-1.02-.036c-.297-.302-.366-.726-.046-1.042.32-.315.77-.221 1.053.1zm.483-.759a.437.437 0 00-.565.028.453.453 0 00-.048.574zM60.92 61.315a.373.373 0 01.074-.367.436.436 0 01.199-.114l.083.236a.236.236 0 00-.146.063c-.183.198.06.442.196.57l.526.482-.16.178-1.05-.978.16-.18zM62.595 60.654l-.458-.95.178-.21.71 1.526-1.623-.455.18-.21zM62.368 58.55a.174.174 0 01.03.245.174.174 0 11-.274-.215.177.177 0 01.244-.03zm1.518 1.268l-.151.191-1.126-.89.151-.192zM64.166 57.765a.548.548 0 00-.459.217.513.513 0 00.13.723.505.505 0 00.721-.085.558.558 0 00.076-.524l.263.193a.783.783 0 01-.15.455.744.744 0 01-1.064.16.757.757 0 01-.16-1.065.788.788 0 01.377-.274zM64.86 57.36a.466.466 0 00.661-.127.495.495 0 000-.53l.214-.106a.727.727 0 01-.029.775.695.695 0 01-1.005.177c-.354-.234-.51-.635-.262-1.01s.707-.376 1.052-.12zm.309-.841a.44.44 0 00-.547.143.457.457 0 00.073.572zM67.306 54.242a.611.611 0 01-.032.548.707.707 0 01-.994.233c-.359-.197-.539-.596-.33-.964a.619.619 0 01.454-.31l-1.126-.628.12-.213 2.202 1.226-.119.214zm-.925.56c.246.136.56.122.708-.145.148-.267.01-.544-.241-.685a.482.482 0 00-.69.169.482.482 0 00.223.66zM67.386 53.09a.465.465 0 00.643-.207.482.482 0 00-.069-.522l.2-.134a.728.728 0 01.064.774.696.696 0 01-.976.299c-.38-.19-.584-.568-.383-.965s.658-.461 1.03-.25zm.203-.87a.437.437 0 00-.524.208.452.452 0 00.141.558zM69.307 50.552l-.096.224-1.111-.483-.06.139-.207-.09.06-.137-.475-.204.097-.225.474.204.101-.237.208.09-.102.235zM68.875 49.75a.756.756 0 11.98-.426.754.754 0 01-.98.426zm.087-.23a.51.51 0 10-.307-.669.508.508 0 00.307.669zM69.769 47.634c.227.08.432.124.53-.16.099-.285-.088-.375-.321-.456l-.756-.264.082-.231.782.273c.36.127.562.35.422.751-.14.4-.438.449-.803.322l-.782-.274.08-.23zM69.988 45.507a.23.23 0 00-.198.141.174.174 0 00.098.217c.124.04.22-.103.34-.24a.439.439 0 01.493-.194.471.471 0 01.299.605.518.518 0 01-.5.373l-.023-.235c.147-.018.26-.056.307-.209a.217.217 0 00-.14-.288c-.305-.098-.395.553-.826.417a.408.408 0 01-.259-.53.434.434 0 01.368-.284z" fill="#878787"/></svg>